<svg xmlns="http://www.w3.org/2000/svg" width="5504" height="3072" viewBox="0 0 1376 768"><defs><mask id="paint" maskUnits="userSpaceOnUse" x="0" y="0" width="1376" height="768" style="mask-type:luminance"><g ><path d="M88.3 442.4 C115 421 174 389 224 363 C285 331 338 313 391 313 C439 312 480 317 528 317 L548 321 C567 329 591 334 619 335 L660 334 C741 334 823 334 873 325 C910 319 946 303 975 287 L962 253 C953 247 945 244 938 242 Q936 240 941 239 C959 237 991 244 1014 245 L1015 249 L1043 253 Q1047 254 1051 260 L1059 270 C1140 283 1241 302 1315 330 Q1317 331 1313 335 C1299 349 1294 362 1296 377 Q1296 397 1314 407 L1292 413 C1263 419 1231 426 1196 432 C1175 392 1142 378 1104 377 C1043 373 996 419 986 475 L986 520 L944 520 C917 509 897 500 877 499 C847 498 807 503 770 506 L416 527 C423 494 418 452 394 414 C373 389 348 376 317 376 C266 375 221 416 211 465 Q206 500 213 535 C201 533 188 532 181 530 Q176 529 174 523 L156 461 Q155 454 150 455 L120 456 L110 479 L94 458 Q89 452 88.3 442.4 Z" fill="white" fill-rule="evenodd"/><path d="M99 517 L114 473 Q117 462 121 457 L150 455 Q154 455 153 462 L144 508 Q143 513 137 514 L101 519 Z" fill="white" fill-rule="evenodd"/><path d="M654 334 L782 260 Q789 257 785 251 L775 247 Q758 237 749 236 Q742 235 738 240 L750 246 Q761 252 754 257 L602 335 Z" fill="white" fill-rule="evenodd"/><path d="M661 332 Q677 323 703 322 L709 322 L710 330 L686 330 L674 335 Z" fill="white" fill-rule="evenodd"/><path d="M941 238 C958 238 993 244 1013 246 L1016 249 L970 245 Q960 242 960 252 L965 286 L966 295 L951 303 L951 282 C948 267 945 250 941 244 Z" fill="white" fill-rule="evenodd"/></g><path d="M549 326 L738 240 L750 247 Q760 253 753 257 L603 335 Q571 334 549 326 Z" fill="black" fill-rule="evenodd"/><path d="M965 246 Q961 246 961 254 L963 277 L965 294 L974 289 L977 286 L972 262 Q970 250 965 246 Z" fill="black" fill-rule="evenodd"/><path d="M142 434 C162 415 192 388 210 380 Q220 374 226 375 C223 381 211 387 206 393 L178 422 Q164 431 142 434 Z" fill="black" fill-rule="evenodd"/><path d="M400 416 C442 411 485 406 509 405 Q533 403 555 414 L631 461 Q647 470 647 477 C641 488 565 492 527 495 Q508 496 500 489 C481 465 476 435 458 423 Q451 419 434 420 L402 423 Z" fill="black" fill-rule="evenodd"/><path d="M1274 330 Q1279 329 1281 336 C1284 347 1287 367 1285 375 L1280 375 L1277 350 Z" fill="black" fill-rule="evenodd"/><path d="M529 322 Q536 316 568 315 L549 326 Q536 326 529 322 Z" fill="black" fill-rule="evenodd"/></mask><filter id="paint-filter" x="0%" y="0%" width="100%" height="100%" color-interpolation-filters="sRGB"><feColorMatrix type="saturate" values="0"/><feComponentTransfer><feFuncR type="table" tableValues="0 0.017254901960784313 0.050980392156862744 0.0784313725490196 1"/><feFuncG type="table" tableValues="0 0.10180392156862746 0.3007843137254902 0.4627450980392157 1"/><feFuncB type="table" tableValues="0 0.16133333333333333 0.4766666666666666 0.7333333333333333 1"/></feComponentTransfer></filter></defs><rect width="1376" height="768" fill="white" mask="url(#paint)"/></svg>